<?xml version="1.0" encoding="UTF-8" standalone="no"?>
<!-- Created with Inkscape (http://www.inkscape.org/) -->
<svg
   xmlns:dc="http://purl.org/dc/elements/1.1/"
   xmlns:cc="http://creativecommons.org/ns#"
   xmlns:rdf="http://www.w3.org/1999/02/22-rdf-syntax-ns#"
   xmlns:svg="http://www.w3.org/2000/svg"
   xmlns="http://www.w3.org/2000/svg"
   xmlns:sodipodi="http://sodipodi.sourceforge.net/DTD/sodipodi-0.dtd"
   xmlns:inkscape="http://www.inkscape.org/namespaces/inkscape"
   width="744.09448819"
   height="1052.3622047"
   id="svg2"
   sodipodi:version="0.32"
   inkscape:version="0.46"
   sodipodi:docname="morph.svg"
   inkscape:output_extension="org.inkscape.output.svg.inkscape">
  <defs
     id="defs4">
    <inkscape:perspective
       sodipodi:type="inkscape:persp3d"
       inkscape:vp_x="0 : 526.18109 : 1"
       inkscape:vp_y="0 : 1000 : 0"
       inkscape:vp_z="744.09448 : 526.18109 : 1"
       inkscape:persp3d-origin="372.04724 : 350.78739 : 1"
       id="perspective10" />
    <inkscape:perspective
       id="perspective3262"
       inkscape:persp3d-origin="372.04724 : 350.78739 : 1"
       inkscape:vp_z="744.09448 : 526.18109 : 1"
       inkscape:vp_y="0 : 1000 : 0"
       inkscape:vp_x="0 : 526.18109 : 1"
       sodipodi:type="inkscape:persp3d" />
    <inkscape:perspective
       id="perspective3326"
       inkscape:persp3d-origin="372.04724 : 350.78739 : 1"
       inkscape:vp_z="744.09448 : 526.18109 : 1"
       inkscape:vp_y="0 : 1000 : 0"
       inkscape:vp_x="0 : 526.18109 : 1"
       sodipodi:type="inkscape:persp3d" />
  </defs>
  <sodipodi:namedview
     id="base"
     pagecolor="#ffffff"
     bordercolor="#666666"
     borderopacity="1.0"
     gridtolerance="10000"
     guidetolerance="10"
     objecttolerance="10"
     inkscape:pageopacity="0.0"
     inkscape:pageshadow="2"
     inkscape:zoom="1.0005093"
     inkscape:cx="322.68001"
     inkscape:cy="443.45622"
     inkscape:document-units="px"
     inkscape:current-layer="layer1"
     showgrid="false"
     inkscape:window-width="1009"
     inkscape:window-height="701"
     inkscape:window-x="0"
     inkscape:window-y="22" />
  <metadata
     id="metadata7">
    <rdf:RDF>
      <cc:Work
         rdf:about="">
        <dc:format>image/svg+xml</dc:format>
        <dc:type
           rdf:resource="http://purl.org/dc/dcmitype/StillImage" />
      </cc:Work>
    </rdf:RDF>
  </metadata>
  <g
     inkscape:label="Layer 1"
     inkscape:groupmode="layer"
     id="layer1">
    <path
       style="opacity:1;fill:#0c451d;fill-opacity:1;stroke:none;stroke-width:1.28191757;stroke-opacity:1"
       d="M 227.20312,517.04688 C 212.23084,517.04688 200.20312,530.21308 200.20312,546.54688 L 200.20312,661.67188 C 200.20312,678.00568 212.23084,691.17188 227.20312,691.17188 L 483.07812,691.17188 C 498.0504,691.17188 510.07809,678.00572 510.07812,661.67188 L 510.07812,546.54688 C 510.07812,530.21308 498.05037,517.04688 483.07812,517.04688 L 227.20312,517.04688 z M 341.32812,557.42187 L 377.70312,557.42187 L 377.70312,564.17188 L 365.82812,564.17188 L 365.82812,643.04688 L 408.45312,643.04688 L 408.45312,627.42187 L 416.20312,627.42187 L 416.20312,650.79688 L 341.32812,650.79688 L 341.32812,644.17188 L 353.20312,644.17188 L 353.20312,564.17188 L 341.32812,564.17188 L 341.32812,557.42187 z M 409.95312,557.42187 L 492.82812,557.42187 L 492.82812,579.42187 L 485.20312,579.42187 L 485.20312,564.92187 L 457.70312,564.92187 L 457.70312,644.17188 L 469.70312,644.17188 L 469.70312,650.79688 L 433.20312,650.79688 L 433.20312,644.17188 L 445.07812,644.17188 L 445.07812,564.92187 L 417.70312,564.92187 L 417.70312,579.42187 L 409.95312,579.42187 L 409.95312,557.42187 z M 259.20312,582.54688 C 264.36973,582.54696 268.61973,583.83859 272.07812,586.42188 C 275.5364,588.96359 277.9114,592.5886 279.07812,597.29687 C 281.28641,592.42191 284.03641,588.75528 287.45312,586.29687 C 290.91136,583.79695 294.99473,582.54696 299.57812,582.54688 C 306.53636,582.54696 311.66136,584.7136 315.07812,589.04688 C 318.49468,593.33859 320.203,599.83859 320.20312,608.54688 L 320.20312,644.17188 L 330.57812,644.17188 L 330.57812,650.79688 L 298.70312,650.79688 L 298.70312,644.17188 L 308.70312,644.17188 L 308.70312,609.79687 C 308.70304,603.00527 307.70304,598.17191 305.70312,595.29687 C 303.70304,592.42191 300.45304,591.04691 295.82812,591.04688 C 290.70304,591.04691 286.78637,592.92191 284.07812,596.79688 C 281.4114,600.67191 280.07805,606.38024 280.07812,613.79687 L 280.07812,644.17188 L 290.07812,644.17188 L 290.07812,650.79688 L 258.57812,650.79688 L 258.57812,644.17188 L 268.57812,644.17188 L 268.57812,609.42187 C 268.57808,602.79691 267.57809,598.0886 265.57812,595.29687 C 263.57809,592.4636 260.20308,591.04691 255.57812,591.04688 C 250.45308,591.04691 246.5364,592.92191 243.82812,596.79688 C 241.16145,600.67191 239.82809,606.38024 239.82812,613.79687 L 239.82812,644.17188 L 249.82812,644.17188 L 249.82812,650.79688 L 217.95312,650.79688 L 217.95312,644.17188 L 228.32812,644.17188 L 228.32812,590.92187 L 217.32812,590.92187 L 217.32812,584.29687 L 239.82812,584.29687 L 239.82812,596.17188 C 241.95309,591.75527 244.66144,588.38027 247.95312,586.04688 C 251.24477,583.7136 255.03641,582.54696 259.20312,582.54688 z"
       id="rect3610"
       inkscape:export-filename="/Users/nathan/Desktop/morphlt-big.png"
       inkscape:export-xdpi="90"
       inkscape:export-ydpi="90" />
    <flowRoot
       xml:space="preserve"
       id="flowRoot3161"
       style="font-size:40px;font-style:normal;font-weight:normal;fill:#000000;fill-opacity:1;stroke:none;stroke-width:1px;stroke-linecap:butt;stroke-linejoin:miter;stroke-opacity:1;font-family:Bitstream Vera Sans"><flowRegion
         id="flowRegion3163"><rect
           id="rect3165"
           width="745.71429"
           height="237.14285"
           x="28.571428"
           y="386.64789" /></flowRegion><flowPara
         id="flowPara3167" /></flowRoot>    <text
       xml:space="preserve"
       style="font-size:72px;font-style:normal;font-weight:normal;fill:#000000;fill-opacity:1;stroke:none;stroke-width:1px;stroke-linecap:butt;stroke-linejoin:miter;stroke-opacity:1;font-family:Bitstream Vera Sans"
       x="295.33853"
       y="563.63232"
       id="text3188"><tspan
         sodipodi:role="line"
         id="tspan3190"
         x="295.33853"
         y="563.63232"
         style="font-size:72px;font-style:normal;font-variant:normal;font-weight:normal;font-stretch:normal;fill:#000080;font-family:Helena;-inkscape-font-specification:Helena" /></text>
  </g>
</svg>
